<svg width="33" height="38" viewBox="0 0 33 38" fill="none" xmlns="http://www.w3.org/2000/svg">
<g clip-path="url(#clip0_1_158)">
<path d="M6.0117 20.9348V18.6514C12.6311 17.7241 19.3065 17.2751 25.988 17.3076C25.988 17.9138 25.988 18.5301 25.9286 19.1464C27.8277 18.2866 29.8236 17.669 31.8709 17.3076C30.5661 13.8642 28.1884 10.9536 25.1037 9.02342C22.0189 7.09326 18.398 6.25049 14.7979 6.62477C11.1978 6.99904 7.81798 8.56962 5.1783 11.0949C2.53863 13.6202 0.785349 16.9603 0.188171 20.6014L6.0117 20.9348Z" fill="#FDC305"/>
<path d="M26.9784 24.4812C25.8295 25.7745 25.6017 25.6937 25.6017 27.967C25.6017 28.8864 25.6017 32.9178 25.6017 37.2422C27.8723 35.7125 29.7362 33.633 31.0271 31.1895C32.3181 28.7459 32.9959 26.0143 33 23.2385C32.9869 22.1868 32.8809 21.1385 32.6831 20.1063C30.6312 21.3486 28.7183 22.8155 26.9784 24.4812Z" fill="#FDC305"/>
<path d="M6.29892 25.9867C6.29892 25.9867 2.54532 24.5318 1.15876 24.1378C0.779508 24.0158 0.392293 23.9213 0 23.8549C0.107354 26.7707 0.956315 29.608 2.4635 32.088C3.97068 34.5679 6.08426 36.6053 8.59664 38L6.29892 25.9867Z" fill="#FDC305"/>
<path d="M26.0375 17.2975C26.0778 11.7189 25.6136 6.14835 24.6509 0.656701C24.6509 0.656701 24.5123 -0.646676 23.7695 0.414212C23.1861 1.67529 22.7857 3.01631 22.581 4.39507C18.3637 4.11799 14.1305 4.23298 9.93365 4.73859C9.15124 2.0207 7.77459 0.757738 7.11102 1.01033C6.44746 1.26292 6.39794 4.35465 6.39794 4.35465L6.07111 18.6009C12.6882 17.6875 19.3603 17.252 26.0375 17.2975V17.2975Z" fill="#F06351"/>
<path d="M12.2908 14.1452C12.2908 14.0542 13.2812 14.8322 13.6873 15.0747C14.0934 15.3172 14.2914 15.4991 14.2914 15.6708C14.2914 15.8426 14.024 16.0144 13.6675 16.0144C13.3109 16.0144 12.7662 15.8931 12.6771 15.7416H13.6081H13.8953C13.2919 15.2863 12.7521 14.7492 12.2908 14.1452V14.1452Z" fill="black"/>
<path d="M19.699 14.2563L18.6194 15.6001C18.6194 15.6607 18.4511 15.9537 18.7977 15.9032C19.2079 15.8408 19.6121 15.7428 20.006 15.6102C20.1149 15.6102 20.0753 15.4182 19.897 15.4385C19.7188 15.4587 19.2137 15.489 18.9066 15.5496L19.7386 14.2765C19.7386 14.2765 19.8079 14.1452 19.699 14.2563Z" fill="black"/>
<path d="M16.5891 20.4095C17.0482 20.2032 17.4277 19.848 17.6687 19.3991C17.946 18.7424 17.6687 18.4797 17.2329 18.3887C16.6366 18.2778 16.0211 18.4004 15.5096 18.7323C15.1234 19.096 15.1729 19.4597 15.4601 19.7426C15.808 20.0116 16.1873 20.2356 16.5891 20.4095V20.4095Z" fill="black"/>
<path d="M16.193 21.6724C16.082 21.9033 15.9271 22.1094 15.7374 22.2787C15.4553 22.5102 15.1086 22.6446 14.747 22.6626C14.2259 22.705 13.7077 22.5504 13.2911 22.2281C13.0953 22.1077 12.9183 21.9578 12.7662 21.7836C12.6667 21.6715 12.5452 21.582 12.4097 21.5209C12.4097 21.5209 13.1525 25.6634 14.955 26.3201C16.7575 26.9769 17.0744 25.5624 17.1339 25.1784C17.1934 24.0318 16.9102 22.8937 16.3217 21.9149C16.3019 21.6017 16.292 21.8038 16.193 21.6724Z" fill="#F06351"/>
<path d="M14.5687 22.8242C14.1085 22.7583 13.6664 22.597 13.2695 22.3502C12.8727 22.1035 12.5295 21.7765 12.2611 21.3895C12.2479 21.3763 12.2375 21.3606 12.2303 21.3432C12.2232 21.3259 12.2195 21.3072 12.2195 21.2884C12.2195 21.2696 12.2232 21.251 12.2303 21.2336C12.2375 21.2163 12.2479 21.2006 12.2611 21.1874C12.274 21.1739 12.2894 21.1633 12.3064 21.156C12.3234 21.1487 12.3417 21.1449 12.3601 21.1449C12.3786 21.1449 12.3968 21.1487 12.4139 21.156C12.4309 21.1633 12.4463 21.1739 12.4592 21.1874C12.9591 21.8888 13.71 22.3608 14.5489 22.5009V22.5009C14.8774 22.4757 15.1952 22.3708 15.476 22.1951C15.7568 22.0194 15.9924 21.7778 16.1633 21.4905L16.3019 21.2985L16.401 21.5107C16.401 21.5107 16.7674 22.2786 17.3914 22.319C18.0153 22.3594 18.4313 21.9048 18.9859 21.0257C18.9988 21.0123 19.0142 21.0016 19.0312 20.9943C19.0482 20.987 19.0665 20.9833 19.0849 20.9833C19.1034 20.9833 19.1216 20.987 19.1386 20.9943C19.1556 21.0016 19.1711 21.0123 19.184 21.0257C19.216 21.0466 19.2389 21.0791 19.2481 21.1167C19.2574 21.1543 19.2521 21.194 19.2335 21.2278C18.5996 22.2382 17.9757 22.6827 17.3715 22.6423C17.1418 22.6082 16.9226 22.5214 16.7304 22.3884C16.5383 22.2554 16.3782 22.0797 16.2623 21.8744C16.0675 22.1518 15.8142 22.381 15.5212 22.5454C15.2281 22.7097 14.9026 22.805 14.5687 22.8242V22.8242Z" fill="black"/>
<path d="M25.988 19.1162C24.2097 20.7567 22.5327 22.508 20.9667 24.36C19.4104 26.2051 17.6526 27.8627 15.7275 29.3007C15.5096 28.7652 14.123 27.775 14.123 27.775C14.123 27.775 11.0231 25.6128 8.99278 23.9154C7.89754 22.9731 6.86214 21.9607 5.89284 20.8843L3.91205 20.7732C6.77447 25.0223 10.9639 28.1565 15.7968 29.6644C16.6485 29.523 19.0354 27.7851 20.8181 26.3706C22.9166 24.5336 24.8827 22.5448 26.7011 20.4195C27.1987 19.8245 27.5818 19.1389 27.8301 18.3988C26.7407 18.7928 25.988 19.1162 25.988 19.1162Z" fill="#F06351"/>
</g>
<defs>
<clipPath id="clip0_1_158">
<rect width="33" height="38" fill="white"/>
</clipPath>
</defs>
</svg>
